<svg width="256" height="256" viewBox="0 0 256 256" xmlns="http://www.w3.org/2000/svg">
  <rect rx="32" width="256" height="256" fill="#E60000"/>
  <path d="M150 70c-22-10-46-7-63 8-13 12-18 28-15 43 3 14 13 26 28 33 9 4 19 6 28 6 16 0 30-5 42-15 6-5 9-12 9-20 0-7-3-13-9-17-7-5-16-6-24-3-6 2-12 6-15 12-2 4-6 6-10 6-8 0-14-7-13-15 2-13 13-25 28-32 13-6 28-7 42-4 6 2 11-2 12-8 1-6-3-12-9-15z" fill="#FFFFFF"/>
  <text x="128" y="210" text-anchor="middle" font-family="Inter, Arial, sans-serif" font-size="40" font-weight="700" fill="#FFFFFF">airtel</text>
</svg>
